<mxfile host="65bd71144e">
    <diagram id="wZ84RXo-G2QEInnGXPtj" name="Page-1">
        <mxGraphModel dx="1683" dy="410" grid="1" gridSize="10" guides="1" tooltips="1" connect="1" arrows="1" fold="1" page="1" pageScale="1" pageWidth="850" pageHeight="1100" math="0" shadow="0">
            <root>
                <mxCell id="0"/>
                <mxCell id="1" parent="0"/>
                <mxCell id="8" style="edgeStyle=none;html=1;exitX=0;exitY=0;exitDx=0;exitDy=0;" parent="1" source="2" target="7" edge="1">
                    <mxGeometry relative="1" as="geometry"/>
                </mxCell>
                <mxCell id="9" style="edgeStyle=none;html=1;entryX=0.5;entryY=1;entryDx=0;entryDy=0;" parent="1" source="2" target="4" edge="1">
                    <mxGeometry relative="1" as="geometry"/>
                </mxCell>
                <mxCell id="10" style="edgeStyle=none;html=1;entryX=0;entryY=1;entryDx=0;entryDy=0;" parent="1" source="2" target="5" edge="1">
                    <mxGeometry relative="1" as="geometry"/>
                </mxCell>
                <mxCell id="11" style="edgeStyle=none;html=1;exitX=0.75;exitY=1;exitDx=0;exitDy=0;" parent="1" source="2" target="6" edge="1">
                    <mxGeometry relative="1" as="geometry"/>
                </mxCell>
                <mxCell id="13" style="edgeStyle=none;html=1;exitX=0.25;exitY=1;exitDx=0;exitDy=0;entryX=0.5;entryY=0;entryDx=0;entryDy=0;" parent="1" source="2" target="12" edge="1">
                    <mxGeometry relative="1" as="geometry"/>
                </mxCell>
                <mxCell id="18" style="edgeStyle=none;html=1;entryX=1;entryY=0.5;entryDx=0;entryDy=0;" parent="1" source="2" target="17" edge="1">
                    <mxGeometry relative="1" as="geometry"/>
                </mxCell>
                <mxCell id="2" value="menfess" style="rounded=0;whiteSpace=wrap;html=1;" parent="1" vertex="1">
                    <mxGeometry x="390" y="250" width="120" height="60" as="geometry"/>
                </mxCell>
                <mxCell id="4" value="user_id1 (msg key json)" style="ellipse;whiteSpace=wrap;html=1;" parent="1" vertex="1">
                    <mxGeometry x="410" y="130" width="120" height="80" as="geometry"/>
                </mxCell>
                <mxCell id="5" value="is_done" style="ellipse;whiteSpace=wrap;html=1;" parent="1" vertex="1">
                    <mxGeometry x="550" y="190" width="120" height="80" as="geometry"/>
                </mxCell>
                <mxCell id="6" value="date_start_unix" style="ellipse;whiteSpace=wrap;html=1;" parent="1" vertex="1">
                    <mxGeometry x="490" y="350" width="120" height="80" as="geometry"/>
                </mxCell>
                <mxCell id="7" value="user_id2 (msg key json)" style="ellipse;whiteSpace=wrap;html=1;" parent="1" vertex="1">
                    <mxGeometry x="260" y="160" width="120" height="80" as="geometry"/>
                </mxCell>
                <mxCell id="12" value="date_end_unix" style="ellipse;whiteSpace=wrap;html=1;" parent="1" vertex="1">
                    <mxGeometry x="305" y="350" width="120" height="80" as="geometry"/>
                </mxCell>
                <mxCell id="16" style="edgeStyle=none;html=1;" parent="1" source="14" target="15" edge="1">
                    <mxGeometry relative="1" as="geometry"/>
                </mxCell>
                <mxCell id="20" style="edgeStyle=none;html=1;exitX=0;exitY=0;exitDx=0;exitDy=0;" parent="1" source="14" target="19" edge="1">
                    <mxGeometry relative="1" as="geometry"/>
                </mxCell>
                <mxCell id="22" style="edgeStyle=none;html=1;exitX=0;exitY=1;exitDx=0;exitDy=0;" parent="1" source="14" target="21" edge="1">
                    <mxGeometry relative="1" as="geometry"/>
                </mxCell>
                <mxCell id="14" value="menfess_message" style="rounded=0;whiteSpace=wrap;html=1;" parent="1" vertex="1">
                    <mxGeometry x="-50" y="330" width="120" height="60" as="geometry"/>
                </mxCell>
                <mxCell id="15" value="message" style="ellipse;whiteSpace=wrap;html=1;" parent="1" vertex="1">
                    <mxGeometry x="-40" y="210" width="120" height="80" as="geometry"/>
                </mxCell>
                <mxCell id="17" value="id" style="ellipse;whiteSpace=wrap;html=1;" parent="1" vertex="1">
                    <mxGeometry x="230" y="260" width="120" height="80" as="geometry"/>
                </mxCell>
                <mxCell id="19" value="id" style="ellipse;whiteSpace=wrap;html=1;" parent="1" vertex="1">
                    <mxGeometry x="-200" y="230" width="120" height="80" as="geometry"/>
                </mxCell>
                <mxCell id="21" value="user_id" style="ellipse;whiteSpace=wrap;html=1;" parent="1" vertex="1">
                    <mxGeometry x="-220" y="380" width="120" height="80" as="geometry"/>
                </mxCell>
                <mxCell id="23" value="&lt;div style=&quot;text-align: left;&quot;&gt;&lt;span style=&quot;background-color: initial;&quot;&gt;1. Start Menfess akan memvalidasi bahwa user tidak sedang melakukan menfess&lt;/span&gt;&lt;/div&gt;&lt;div style=&quot;text-align: left;&quot;&gt;&lt;span style=&quot;background-color: initial;&quot;&gt;2. tau pesan akan dikirimkan kesiapa&lt;/span&gt;&lt;/div&gt;&lt;div style=&quot;text-align: left;&quot;&gt;&lt;span style=&quot;background-color: initial;&quot;&gt;3. remember no telp (artinya insert ke tabel menfess)&lt;/span&gt;&lt;/div&gt;&lt;div style=&quot;text-align: left;&quot;&gt;&lt;span style=&quot;background-color: initial;&quot;&gt;4. jika user mengirim pesan... dan variabel me = 1234&amp;nbsp;&lt;/span&gt;&lt;/div&gt;&lt;div style=&quot;text-align: left;&quot;&gt;&lt;span style=&quot;background-color: initial;&quot;&gt;&lt;span style=&quot;white-space: pre;&quot;&gt;&#9;&lt;/span&gt;SELECT * FROM menfess WHERE user_id1 = me OR user_id2 = me&lt;br&gt;&lt;/span&gt;&lt;/div&gt;&lt;div style=&quot;text-align: left;&quot;&gt;&lt;span style=&quot;background-color: initial;&quot;&gt;5. jika no telp ditemukan dan status nya !selesai maka kirim pesan tersebut dan berikan pengingat atau konfirmasi bahwa user sedang melakukan dialog menfess&lt;/span&gt;&lt;/div&gt;&lt;div style=&quot;text-align: left;&quot;&gt;&lt;span style=&quot;background-color: initial;&quot;&gt;6. Read message :&amp;nbsp;&lt;/span&gt;&lt;span style=&quot;background-color: initial;&quot;&gt;&amp;nbsp;&lt;/span&gt;&lt;/div&gt;" style="text;html=1;strokeColor=none;fillColor=none;align=center;verticalAlign=middle;whiteSpace=wrap;rounded=0;" parent="1" vertex="1">
                    <mxGeometry x="-330" y="40" width="410" height="140" as="geometry"/>
                </mxCell>
                <mxCell id="32" style="edgeStyle=none;html=1;" parent="1" source="24" target="31" edge="1">
                    <mxGeometry relative="1" as="geometry"/>
                </mxCell>
                <mxCell id="24" value=".menfess 1333 MESSAGES" style="shape=parallelogram;perimeter=parallelogramPerimeter;whiteSpace=wrap;html=1;fixedSize=1;" parent="1" vertex="1">
                    <mxGeometry x="40" y="870" width="190" height="90" as="geometry"/>
                </mxCell>
                <mxCell id="40" value="" style="edgeStyle=none;html=1;" parent="1" source="25" target="38" edge="1">
                    <mxGeometry relative="1" as="geometry"/>
                </mxCell>
                <mxCell id="42" style="edgeStyle=none;html=1;" parent="1" source="25" target="41" edge="1">
                    <mxGeometry relative="1" as="geometry"/>
                </mxCell>
                <mxCell id="25" value="BOT kirim pesan ke USER B" style="rounded=0;whiteSpace=wrap;html=1;" parent="1" vertex="1">
                    <mxGeometry x="560" y="880" width="130" height="60" as="geometry"/>
                </mxCell>
                <mxCell id="30" style="edgeStyle=none;html=1;" parent="1" source="29" target="24" edge="1">
                    <mxGeometry relative="1" as="geometry"/>
                </mxCell>
                <mxCell id="29" value="USER A" style="rounded=1;whiteSpace=wrap;html=1;arcSize=50;" parent="1" vertex="1">
                    <mxGeometry x="-160" y="892.5" width="140" height="45" as="geometry"/>
                </mxCell>
                <mxCell id="34" style="edgeStyle=none;html=1;entryX=0.474;entryY=1;entryDx=0;entryDy=0;entryPerimeter=0;" parent="1" source="31" target="33" edge="1">
                    <mxGeometry relative="1" as="geometry"/>
                </mxCell>
                <mxCell id="36" style="edgeStyle=none;html=1;" parent="1" source="31" target="25" edge="1">
                    <mxGeometry relative="1" as="geometry"/>
                </mxCell>
                <mxCell id="31" value="sedang melakukan menfess" style="rhombus;whiteSpace=wrap;html=1;" parent="1" vertex="1">
                    <mxGeometry x="280" y="860" width="170" height="100" as="geometry"/>
                </mxCell>
                <mxCell id="33" value="anda sedang dalam percakapan&lt;br&gt;dialog dengan 1333. apakah anda ingin keluar dari percakapan ini ? y / n" style="shape=parallelogram;perimeter=parallelogramPerimeter;whiteSpace=wrap;html=1;fixedSize=1;" parent="1" vertex="1">
                    <mxGeometry x="280" y="700" width="190" height="90" as="geometry"/>
                </mxCell>
                <mxCell id="35" value="TRUE" style="text;html=1;strokeColor=none;fillColor=none;align=center;verticalAlign=middle;whiteSpace=wrap;rounded=0;" parent="1" vertex="1">
                    <mxGeometry x="320" y="818" width="60" height="30" as="geometry"/>
                </mxCell>
                <mxCell id="37" value="FALSE" style="text;html=1;strokeColor=none;fillColor=none;align=center;verticalAlign=middle;whiteSpace=wrap;rounded=0;" parent="1" vertex="1">
                    <mxGeometry x="471" y="880" width="60" height="30" as="geometry"/>
                </mxCell>
                <mxCell id="38" value="INSERT TO MENFESS" style="shape=dataStorage;whiteSpace=wrap;html=1;fixedSize=1;" parent="1" vertex="1">
                    <mxGeometry x="565" y="753" width="120" height="80" as="geometry"/>
                </mxCell>
                <mxCell id="44" style="edgeStyle=none;html=1;" parent="1" source="41" target="43" edge="1">
                    <mxGeometry relative="1" as="geometry"/>
                </mxCell>
                <mxCell id="47" style="edgeStyle=none;html=1;" parent="1" source="41" edge="1">
                    <mxGeometry relative="1" as="geometry">
                        <mxPoint x="895" y="800" as="targetPoint"/>
                    </mxGeometry>
                </mxCell>
                <mxCell id="41" value="ADA PESAN RAHASIA!&lt;br&gt;&lt;br&gt;pesan dari USER A" style="shape=parallelogram;perimeter=parallelogramPerimeter;whiteSpace=wrap;html=1;fixedSize=1;" parent="1" vertex="1">
                    <mxGeometry x="800" y="865" width="190" height="90" as="geometry"/>
                </mxCell>
                <mxCell id="43" value="USER B" style="rounded=1;whiteSpace=wrap;html=1;arcSize=50;" parent="1" vertex="1">
                    <mxGeometry x="1090" y="887.5" width="140" height="45" as="geometry"/>
                </mxCell>
                <mxCell id="54" value="" style="edgeStyle=none;html=1;" parent="1" source="48" target="53" edge="1">
                    <mxGeometry relative="1" as="geometry"/>
                </mxCell>
                <mxCell id="48" value="ev.on('messages.update')" style="rounded=0;whiteSpace=wrap;html=1;" parent="1" vertex="1">
                    <mxGeometry x="835" y="770" width="155" height="60" as="geometry"/>
                </mxCell>
                <mxCell id="96" style="edgeStyle=none;html=1;" edge="1" parent="1" source="50" target="86">
                    <mxGeometry relative="1" as="geometry"/>
                </mxCell>
                <mxCell id="50" value="emit('menfess.read', {keyMsg})" style="rounded=0;whiteSpace=wrap;html=1;" parent="1" vertex="1">
                    <mxGeometry x="1295" y="565" width="145" height="60" as="geometry"/>
                </mxCell>
                <mxCell id="52" value="messages.update :&lt;br&gt;1 = PENDING&lt;br&gt;2 = SERVER_ACK&lt;br&gt;3 = DELIVERY_ACK / CEKLIS DUA&lt;br&gt;4 = READ&lt;br&gt;5 = PLAYED&lt;br&gt;&lt;br&gt;doc :&amp;nbsp;https://whiskeysockets.github.io/Baileys/enums/proto.WebMessageInfo.Status.html&amp;nbsp;" style="text;html=1;strokeColor=none;fillColor=none;align=left;verticalAlign=middle;whiteSpace=wrap;rounded=0;" parent="1" vertex="1">
                    <mxGeometry x="440" y="560" width="380" height="70" as="geometry"/>
                </mxCell>
                <mxCell id="62" style="edgeStyle=none;html=1;startArrow=none;" parent="1" source="75" target="61" edge="1">
                    <mxGeometry relative="1" as="geometry"/>
                </mxCell>
                <mxCell id="77" style="edgeStyle=none;html=1;fontFamily=Helvetica;fontSize=12;fontColor=default;" parent="1" source="53" target="58" edge="1">
                    <mxGeometry relative="1" as="geometry"/>
                </mxCell>
                <mxCell id="53" value="update == 3 &amp;amp;&amp;amp; jId == 1234" style="rhombus;whiteSpace=wrap;html=1;rounded=0;" parent="1" vertex="1">
                    <mxGeometry x="1070" y="760" width="160" height="80" as="geometry"/>
                </mxCell>
                <mxCell id="56" value="TRUE" style="text;html=1;strokeColor=none;fillColor=none;align=center;verticalAlign=middle;whiteSpace=wrap;rounded=0;" parent="1" vertex="1">
                    <mxGeometry x="1145" y="730" width="60" height="30" as="geometry"/>
                </mxCell>
                <mxCell id="94" style="edgeStyle=none;html=1;" edge="1" parent="1" source="58" target="84">
                    <mxGeometry relative="1" as="geometry"/>
                </mxCell>
                <mxCell id="58" value="update == 4&amp;nbsp;" style="rhombus;whiteSpace=wrap;html=1;rounded=0;" parent="1" vertex="1">
                    <mxGeometry x="1292.5" y="760" width="150" height="80" as="geometry"/>
                </mxCell>
                <mxCell id="68" style="edgeStyle=none;html=1;entryX=0.5;entryY=1;entryDx=0;entryDy=0;" parent="1" source="61" target="66" edge="1">
                    <mxGeometry relative="1" as="geometry"/>
                </mxCell>
                <mxCell id="61" value="emit('menfess.berhasil', {keyMsg})" style="rounded=0;whiteSpace=wrap;html=1;" parent="1" vertex="1">
                    <mxGeometry x="1080" y="570" width="140" height="60" as="geometry"/>
                </mxCell>
                <mxCell id="69" style="edgeStyle=none;html=1;entryX=0.5;entryY=0;entryDx=0;entryDy=0;" parent="1" source="66" target="29" edge="1">
                    <mxGeometry relative="1" as="geometry">
                        <Array as="points">
                            <mxPoint x="-90" y="490"/>
                        </Array>
                    </mxGeometry>
                </mxCell>
                <mxCell id="66" value="PESAN SUDAH DITERIMA OLEH USER B" style="shape=parallelogram;perimeter=parallelogramPerimeter;whiteSpace=wrap;html=1;fixedSize=1;" parent="1" vertex="1">
                    <mxGeometry x="1085" y="460" width="130" height="60" as="geometry"/>
                </mxCell>
                <mxCell id="71" style="edgeStyle=none;html=1;exitX=0.5;exitY=1;exitDx=0;exitDy=0;fontFamily=Helvetica;fontSize=12;fontColor=default;" parent="1" source="70" edge="1">
                    <mxGeometry relative="1" as="geometry">
                        <mxPoint x="344.8823529411766" y="580" as="targetPoint"/>
                    </mxGeometry>
                </mxCell>
                <mxCell id="70" value="DATA USER YANG SEDANG MENFESS DI CACHE KE JSON FILE. BERARTI DI SINI YANG DI CACHE DATA USER A DAN USER B" style="text;html=1;strokeColor=#6F0000;fillColor=#a20025;align=center;verticalAlign=middle;whiteSpace=wrap;rounded=0;fontColor=#ffffff;" parent="1" vertex="1">
                    <mxGeometry x="255" y="520" width="170" height="70" as="geometry"/>
                </mxCell>
                <mxCell id="72" value="" style="group;fillColor=#60a917;fontColor=#ffffff;strokeColor=#2D7600;" parent="1" vertex="1" connectable="0">
                    <mxGeometry x="285" y="603" width="110" height="60" as="geometry"/>
                </mxCell>
                <mxCell id="26" value="USER A = 1234" style="text;html=1;strokeColor=none;fillColor=none;align=center;verticalAlign=middle;whiteSpace=wrap;rounded=0;" parent="72" vertex="1">
                    <mxGeometry width="110" height="30" as="geometry"/>
                </mxCell>
                <mxCell id="27" value="USER B = 1333" style="text;html=1;strokeColor=none;fillColor=none;align=center;verticalAlign=middle;whiteSpace=wrap;rounded=0;" parent="72" vertex="1">
                    <mxGeometry y="30" width="110" height="30" as="geometry"/>
                </mxCell>
                <mxCell id="78" value="FALSE" style="text;html=1;strokeColor=none;fillColor=none;align=center;verticalAlign=middle;whiteSpace=wrap;rounded=0;" parent="1" vertex="1">
                    <mxGeometry x="1225" y="770" width="60" height="30" as="geometry"/>
                </mxCell>
                <mxCell id="82" value="TRUE" style="text;html=1;strokeColor=none;fillColor=none;align=center;verticalAlign=middle;whiteSpace=wrap;rounded=0;" parent="1" vertex="1">
                    <mxGeometry x="1285" y="723" width="60" height="30" as="geometry"/>
                </mxCell>
                <mxCell id="95" style="edgeStyle=none;html=1;exitX=0.5;exitY=0;exitDx=0;exitDy=0;entryX=0.5;entryY=1;entryDx=0;entryDy=0;" edge="1" parent="1" source="84" target="50">
                    <mxGeometry relative="1" as="geometry"/>
                </mxCell>
                <mxCell id="84" value="find cache menfess" style="rhombus;whiteSpace=wrap;html=1;rounded=0;" parent="1" vertex="1">
                    <mxGeometry x="1292.5" y="650" width="150" height="80" as="geometry"/>
                </mxCell>
                <mxCell id="89" style="edgeStyle=none;html=1;entryX=0.5;entryY=1;entryDx=0;entryDy=0;fontFamily=Helvetica;fontSize=12;fontColor=default;" parent="1" source="86" target="24" edge="1">
                    <mxGeometry relative="1" as="geometry">
                        <Array as="points">
                            <mxPoint x="1620" y="480"/>
                            <mxPoint x="1620" y="980"/>
                            <mxPoint x="135" y="990"/>
                        </Array>
                    </mxGeometry>
                </mxCell>
                <mxCell id="86" value="reactMessage(readIcon)" style="rounded=0;whiteSpace=wrap;html=1;" parent="1" vertex="1">
                    <mxGeometry x="1292.5" y="450" width="145" height="60" as="geometry"/>
                </mxCell>
                <mxCell id="92" value="" style="edgeStyle=none;html=1;" edge="1" parent="1" source="90" target="86">
                    <mxGeometry relative="1" as="geometry"/>
                </mxCell>
                <mxCell id="93" value="" style="edgeStyle=none;html=1;" edge="1" parent="1" source="90" target="86">
                    <mxGeometry relative="1" as="geometry"/>
                </mxCell>
                <mxCell id="90" value="TRUE" style="text;html=1;strokeColor=none;fillColor=none;align=center;verticalAlign=middle;whiteSpace=wrap;rounded=0;" parent="1" vertex="1">
                    <mxGeometry x="1410" y="510" width="60" height="30" as="geometry"/>
                </mxCell>
                <mxCell id="91" value="" style="edgeStyle=none;html=1;endArrow=none;" edge="1" parent="1" source="53" target="75">
                    <mxGeometry relative="1" as="geometry">
                        <mxPoint x="1150" y="760" as="sourcePoint"/>
                        <mxPoint x="1150" y="630" as="targetPoint"/>
                    </mxGeometry>
                </mxCell>
                <mxCell id="75" value="find cache menfess" style="rhombus;whiteSpace=wrap;html=1;rounded=0;" parent="1" vertex="1">
                    <mxGeometry x="1075" y="650" width="150" height="80" as="geometry"/>
                </mxCell>
            </root>
        </mxGraphModel>
    </diagram>
</mxfile>